<svg xmlns="http://www.w3.org/2000/svg" viewBox="0 0 3200 3200">
  <g stroke="#61DAFB" stroke-width="1" fill-opacity="0">
    <g id="latitudinal" stroke-width="3">
      <circle id="equator" cx="1600" cy="1600" r="1000"></circle>
      <circle id="innerTropic" cx="1600" cy="1600" r="656.4250277475"></circle>
      <circle id="outerTropic" cx="1600" cy="1600" r="1523.403218538857"></circle>
      <line x1="1600" y1="76.596781461143" x2="1600" y2="3123.403218538857"></line>
    </g>
    <g id="horizontal">
      <g id="horizontalLines">
        <circle cx="1600" cy="1210.0224736615455" r="50.286460311327744"></circle>
        <circle cx="1600" cy="1207.4433950900852" r="100.85280854064251"></circle>
        <circle cx="1600" cy="1203.0907293440882" r="151.98577817643684"></circle>
        <circle cx="1600" cy="1196.880728738575" r="203.98616955937277"></circle>
        <circle cx="1600" cy="1188.6910586562499" r="257.1768591214541"></circle>
        <circle cx="1600" cy="1178.3552250630426" r="311.91208745432675"></circle>
        <circle cx="1600" cy="1165.6546478024154" r="368.58865012697675"></circle>
        <circle cx="1600" cy="1150.307671573124" r="427.659824574856"></circle>
        <circle cx="1600" cy="1131.9544643928243" r="489.653188967757"></circle>
        <circle cx="1600" cy="1110.1362434518062" r="555.193986043051"></circle>
        <circle cx="1600" cy="1084.2664862691142" r="625.0364596076384"></circle>
        <circle cx="1600" cy="1053.590553298276" r="700.1068208052661"></circle>
        <circle cx="1600" cy="1017.1281545300646" r="781.5634971713544"></circle>
        <circle cx="1600" cy="973.5897710624105" r="870.8836463000116"></circle>
        <path
          d="M 2294.550348154101 , 244.13969003677758 a 969.9906426821819,969.9906426821819 0 1,1 -1389.1006963082018 ,0"
          stroke-width="1"></path>
        <path
          d="M 2602.988018747177 , 453.36474827251175 a 1081.447455130201,1081.447455130201 0 1,1 -2005.9760374943544 ,0"
          stroke-width="1"></path>
        <path
          d="M 2803.368402457546 , 665.8362808258273 a 1208.759791555194,1208.759791555194 0 1,1 -2406.736804915092 ,0"
          stroke-width="1"></path>
        <path
          d="M 2942.485383091737 , 879.9372510401744 a 1356.8698103488061,1356.8698103488061 0 0,1 -2684.9707661834736 ,0"
          stroke-width="3"></path>
      </g>
      <g id="directionalLines">
        <line x1="1600" y1="1600" x2="1600" y2="0"></line>
        <line x1="1600" y1="1600" x2="2014.1104721640331" y2="54.51867793749079"></line>
        <line x1="1600" y1="1600" x2="2400" y2="214.35935394489798"></line>
        <line x1="1600" y1="1600" x2="2731.370849898476" y2="468.6291501015239"></line>
        <line x1="1600" y1="1600" x2="2985.6406460551016" y2="799.9999999999998"></line>
        <line x1="1600" y1="1600" x2="3145.481322062509" y2="1185.8895278359669"></line>
        <line x1="1600" y1="1600" x2="3200" y2="1600"></line>
        <line x1="1600" y1="1600" x2="3145.481322062509" y2="2014.1104721640331"></line>
        <line x1="1600" y1="1600" x2="2985.640646055102" y2="2399.9999999999995"></line>
        <line x1="1600" y1="1600" x2="2731.370849898476" y2="2731.370849898476"></line>
        <line x1="1600" y1="1600" x2="2400" y2="2985.640646055102"></line>
        <line x1="1600" y1="1600" x2="2014.1104721640336" y2="3145.481322062509"></line>
        <line x1="1600" y1="1600" x2="1600.0000000000002" y2="3200"></line>
        <line x1="1600" y1="1600" x2="1185.8895278359666" y2="3145.481322062509"></line>
        <line x1="1600" y1="1600" x2="800.0000000000005" y2="2985.640646055102"></line>
        <line x1="1600" y1="1600" x2="468.6291501015246" y2="2731.3708498984765"></line>
        <line x1="1600" y1="1600" x2="214.35935394489866" y2="2400.000000000001"></line>
        <line x1="1600" y1="1600" x2="54.51867793749079" y2="2014.1104721640331"></line>
        <line x1="1600" y1="1600" x2="0" y2="1600.0000000000002"></line>
        <line x1="1600" y1="1600" x2="54.518677937490565" y2="1185.8895278359676"></line>
        <line x1="1600" y1="1600" x2="214.3593539448982" y2="799.9999999999998"></line>
        <line x1="1600" y1="1600" x2="468.6291501015237" y2="468.62915010152415"></line>
        <line x1="1600" y1="1600" x2="799.9999999999993" y2="214.35935394489866"></line>
        <line x1="1600" y1="1600" x2="1185.8895278359655" y2="54.51867793749102"></line>
      </g>
      <g id="temporalLines">
        <path
          d="M 2113.5635865547006,3034.2279486956113 a 6598.681950068625,6598.681950068625,0 0 1 -396.2075605034561,-788.3786007801968"></path>
        <path
          d="M 1086.4364134452994,3034.2279486956113 a 6598.681950068625,6598.681950068625,0 0 0 396.2075605034561,-788.3786007801968"></path>
        <line x1="1327.6451380672138" y1="101.14036833460591" x2="1378.708625889859"
          y2="982.0000446620147"></line>
        <line x1="1872.3548619327862" y1="101.14036833460591" x2="1821.291374110141"
          y2="982.0000446620147"></line>
        <path
          d="M 2567.0023540787497,2777.142223123741 a 3493.646520726433,3493.646520726433,0 0 1 -736.0717536437658,-562.6791446267139"></path>
        <path
          d="M 632.9976459212503,2777.142223123741 a 3493.646520726433,3493.646520726433,0 0 0 736.0717536437658,-562.6791446267139"></path>
        <line x1="1064.066107946925" y1="173.98028428657722" x2="1183.3246645514748"
          y2="1092.7766942635965"></line>
        <line x1="2135.933892053075" y1="173.98028428657722" x2="2016.6753354485252"
          y2="1092.7766942635965"></line>
        <path
          d="M 2907.2305220522285,2382.2440338344595 a 2040.7369680690376,2040.7369680690376,0 0 1 -970.1664044461229,-218.9664844187887"></path>
        <path
          d="M 292.7694779477715,2382.2440338344595 a 2040.7369680690376,2040.7369680690376,0 0 0 970.1664044461229,-218.9664844187887"></path>
        <line x1="817.7559661655409" y1="292.7694779477715" x2="1036.7224505843292"
          y2="1262.9358823938942"></line>
        <line x1="2382.244033834459" y1="292.7694779477715" x2="2163.277549415671"
          y2="1262.9358823938942"></line>
        <path
          d="M 3094.416300285789,1895.7655958604423 a 1022.7881799527617,1022.7881799527617,0 0 1 -1062.079562153282,198.17646745695765"></path>
        <path
          d="M 105.58369971421098,1895.7655958604423 a 1022.7881799527617,1022.7881799527617,0 0 0 1062.079562153282,198.17646745695765"></path>
        <line x1="596.6513302765211" y1="453.68031805317355" x2="956.0652561031765"
          y2="1472.5564334466485"></line>
        <line x1="2603.348669723479" y1="453.68031805317355" x2="2243.9347438968234"
          y2="1472.5564334466485"></line>
        <path
          d="M 3106.645146284496,1374.660768103029 a 460.2456451879417,460.2456451879417,0 0 1 -992.9665633543173,634.0299835566454"></path>
        <path
          d="M 93.35485371550385,1374.660768103029 a 460.2456451879417,460.2456451879417,0 0 0 992.9665633543173,634.0299835566454"></path>
        <line x1="407.87664477758995" y1="651.5279275657022" x2="950.7959219726364"
          y2="1697.0972817639458"></line>
        <line x1="2792.1233552224103" y1="651.5279275657022" x2="2249.2040780273637"
          y2="1697.0972817639458"></line>
      </g>
    </g>
    <g id="fixed">
      <g id="ecliptic" transform="rotate(334.836362965405,1600,1600)">
        <circle id="ecliptic" cx="1600" cy="1166.5109046043215" r="1089.9141231431786"
          stroke-width="3"></circle>
      </g>
    </g>
  </g>
</svg>